<mxfile host="app.diagrams.net" modified="2023-03-28T22:06:41.268Z" agent="Mozilla/5.0 (Windows NT 10.0; Win64; x64) AppleWebKit/537.36 (KHTML, like Gecko) Chrome/109.0.0.0 Safari/537.36" etag="HuIaf42t20aMIKzMwhCf" version="21.1.1" type="device" pages="2">
  <diagram name="Página-1" id="KuyIm3Y8SHxanTyuKtUW">
    <mxGraphModel dx="1363" dy="1969" grid="1" gridSize="10" guides="1" tooltips="1" connect="1" arrows="1" fold="1" page="1" pageScale="1" pageWidth="827" pageHeight="1169" math="0" shadow="0">
      <root>
        <mxCell id="0" />
        <mxCell id="1" parent="0" />
        <mxCell id="Zp6je37afjgrhPP4GV5p-1" value="Cliente" style="shape=umlActor;verticalLabelPosition=bottom;verticalAlign=top;html=1;outlineConnect=0;" parent="1" vertex="1">
          <mxGeometry x="70" y="70" width="30" height="60" as="geometry" />
        </mxCell>
        <mxCell id="Zp6je37afjgrhPP4GV5p-2" value="" style="whiteSpace=wrap;html=1;aspect=fixed;" parent="1" vertex="1">
          <mxGeometry x="149" y="-10" width="650" height="650" as="geometry" />
        </mxCell>
        <mxCell id="Zp6je37afjgrhPP4GV5p-8" style="edgeStyle=orthogonalEdgeStyle;rounded=0;orthogonalLoop=1;jettySize=auto;html=1;" parent="1" source="Zp6je37afjgrhPP4GV5p-3" target="Zp6je37afjgrhPP4GV5p-6" edge="1">
          <mxGeometry relative="1" as="geometry" />
        </mxCell>
        <mxCell id="Zp6je37afjgrhPP4GV5p-9" value="&amp;lt;&amp;lt;include&amp;gt;&amp;gt;" style="edgeLabel;html=1;align=center;verticalAlign=middle;resizable=0;points=[];" parent="Zp6je37afjgrhPP4GV5p-8" vertex="1" connectable="0">
          <mxGeometry x="-0.1928" y="-2" relative="1" as="geometry">
            <mxPoint as="offset" />
          </mxGeometry>
        </mxCell>
        <mxCell id="Zp6je37afjgrhPP4GV5p-3" value="Marcar Consulta" style="ellipse;whiteSpace=wrap;html=1;" parent="1" vertex="1">
          <mxGeometry x="354" width="120" height="80" as="geometry" />
        </mxCell>
        <mxCell id="Zp6je37afjgrhPP4GV5p-4" style="edgeStyle=orthogonalEdgeStyle;rounded=0;orthogonalLoop=1;jettySize=auto;html=1;entryX=0;entryY=0.5;entryDx=0;entryDy=0;" parent="1" source="Zp6je37afjgrhPP4GV5p-1" target="Zp6je37afjgrhPP4GV5p-3" edge="1">
          <mxGeometry relative="1" as="geometry">
            <Array as="points">
              <mxPoint x="227" y="100" />
              <mxPoint x="227" y="40" />
            </Array>
          </mxGeometry>
        </mxCell>
        <mxCell id="Zp6je37afjgrhPP4GV5p-7" style="edgeStyle=orthogonalEdgeStyle;rounded=0;orthogonalLoop=1;jettySize=auto;html=1;" parent="1" source="Zp6je37afjgrhPP4GV5p-5" target="Zp6je37afjgrhPP4GV5p-6" edge="1">
          <mxGeometry relative="1" as="geometry" />
        </mxCell>
        <mxCell id="Zp6je37afjgrhPP4GV5p-21" style="edgeStyle=orthogonalEdgeStyle;rounded=0;orthogonalLoop=1;jettySize=auto;html=1;" parent="1" source="Zp6je37afjgrhPP4GV5p-5" target="Zp6je37afjgrhPP4GV5p-12" edge="1">
          <mxGeometry relative="1" as="geometry">
            <Array as="points">
              <mxPoint x="835" y="190" />
            </Array>
          </mxGeometry>
        </mxCell>
        <mxCell id="Zp6je37afjgrhPP4GV5p-40" style="edgeStyle=orthogonalEdgeStyle;rounded=0;orthogonalLoop=1;jettySize=auto;html=1;" parent="1" source="Zp6je37afjgrhPP4GV5p-5" target="Zp6je37afjgrhPP4GV5p-38" edge="1">
          <mxGeometry relative="1" as="geometry">
            <Array as="points">
              <mxPoint x="835" y="560" />
            </Array>
          </mxGeometry>
        </mxCell>
        <mxCell id="Zp6je37afjgrhPP4GV5p-5" value="Secretario" style="shape=umlActor;verticalLabelPosition=bottom;verticalAlign=top;html=1;outlineConnect=0;" parent="1" vertex="1">
          <mxGeometry x="820" y="40" width="30" height="60" as="geometry" />
        </mxCell>
        <mxCell id="XHaSgFvrl9hFRG3o2UWs-1" style="edgeStyle=orthogonalEdgeStyle;rounded=0;orthogonalLoop=1;jettySize=auto;html=1;" parent="1" source="Zp6je37afjgrhPP4GV5p-6" target="Zp6je37afjgrhPP4GV5p-38" edge="1">
          <mxGeometry relative="1" as="geometry">
            <Array as="points">
              <mxPoint x="625" y="490" />
              <mxPoint x="660" y="490" />
            </Array>
          </mxGeometry>
        </mxCell>
        <mxCell id="XHaSgFvrl9hFRG3o2UWs-2" value="&amp;lt;&amp;lt;include&amp;gt;&amp;gt;" style="edgeLabel;html=1;align=center;verticalAlign=middle;resizable=0;points=[];" parent="XHaSgFvrl9hFRG3o2UWs-1" vertex="1" connectable="0">
          <mxGeometry x="0.3715" relative="1" as="geometry">
            <mxPoint x="35" y="62" as="offset" />
          </mxGeometry>
        </mxCell>
        <mxCell id="XHaSgFvrl9hFRG3o2UWs-5" style="edgeStyle=orthogonalEdgeStyle;rounded=0;orthogonalLoop=1;jettySize=auto;html=1;" parent="1" source="Zp6je37afjgrhPP4GV5p-6" target="XHaSgFvrl9hFRG3o2UWs-3" edge="1">
          <mxGeometry relative="1" as="geometry">
            <Array as="points">
              <mxPoint x="625" y="490" />
              <mxPoint x="500" y="490" />
              <mxPoint x="500" y="570" />
            </Array>
          </mxGeometry>
        </mxCell>
        <mxCell id="Zp6je37afjgrhPP4GV5p-6" value="Confirmar a Consulta" style="ellipse;whiteSpace=wrap;html=1;" parent="1" vertex="1">
          <mxGeometry x="560" y="80" width="130" height="80" as="geometry" />
        </mxCell>
        <mxCell id="KSdjuSI3MwPudzWqymLE-4" style="edgeStyle=orthogonalEdgeStyle;rounded=0;orthogonalLoop=1;jettySize=auto;html=1;" edge="1" parent="1" source="Zp6je37afjgrhPP4GV5p-12" target="KSdjuSI3MwPudzWqymLE-2">
          <mxGeometry relative="1" as="geometry">
            <Array as="points">
              <mxPoint x="325" y="250" />
            </Array>
          </mxGeometry>
        </mxCell>
        <mxCell id="Zp6je37afjgrhPP4GV5p-12" value="Verificar existência de cadastro" style="ellipse;whiteSpace=wrap;html=1;" parent="1" vertex="1">
          <mxGeometry x="250" y="140" width="150" height="100" as="geometry" />
        </mxCell>
        <mxCell id="Zp6je37afjgrhPP4GV5p-15" value="Realizar consulta" style="ellipse;whiteSpace=wrap;html=1;" parent="1" vertex="1">
          <mxGeometry x="260" y="410" width="166" height="90" as="geometry" />
        </mxCell>
        <mxCell id="Zp6je37afjgrhPP4GV5p-37" style="edgeStyle=orthogonalEdgeStyle;rounded=0;orthogonalLoop=1;jettySize=auto;html=1;" parent="1" source="Zp6je37afjgrhPP4GV5p-36" target="Zp6je37afjgrhPP4GV5p-15" edge="1">
          <mxGeometry relative="1" as="geometry">
            <Array as="points">
              <mxPoint x="680" y="455" />
              <mxPoint x="680" y="455" />
            </Array>
          </mxGeometry>
        </mxCell>
        <mxCell id="Zp6je37afjgrhPP4GV5p-36" value="Veterianario" style="shape=umlActor;verticalLabelPosition=bottom;verticalAlign=top;html=1;outlineConnect=0;" parent="1" vertex="1">
          <mxGeometry x="850" y="400" width="43" height="70" as="geometry" />
        </mxCell>
        <mxCell id="Zp6je37afjgrhPP4GV5p-38" value="Pagar consulta" style="ellipse;whiteSpace=wrap;html=1;" parent="1" vertex="1">
          <mxGeometry x="600" y="530" width="120" height="80" as="geometry" />
        </mxCell>
        <mxCell id="Zp6je37afjgrhPP4GV5p-39" style="edgeStyle=orthogonalEdgeStyle;rounded=0;orthogonalLoop=1;jettySize=auto;html=1;" parent="1" source="Zp6je37afjgrhPP4GV5p-1" target="Zp6je37afjgrhPP4GV5p-38" edge="1">
          <mxGeometry relative="1" as="geometry">
            <Array as="points">
              <mxPoint x="85" y="690" />
              <mxPoint x="660" y="690" />
            </Array>
          </mxGeometry>
        </mxCell>
        <mxCell id="XHaSgFvrl9hFRG3o2UWs-3" value="Cancelar Consulta" style="ellipse;whiteSpace=wrap;html=1;" parent="1" vertex="1">
          <mxGeometry x="260" y="530" width="160" height="80" as="geometry" />
        </mxCell>
        <mxCell id="XHaSgFvrl9hFRG3o2UWs-4" style="edgeStyle=orthogonalEdgeStyle;rounded=0;orthogonalLoop=1;jettySize=auto;html=1;" parent="1" source="Zp6je37afjgrhPP4GV5p-1" target="XHaSgFvrl9hFRG3o2UWs-3" edge="1">
          <mxGeometry relative="1" as="geometry">
            <Array as="points">
              <mxPoint x="85" y="570" />
            </Array>
          </mxGeometry>
        </mxCell>
        <mxCell id="XHaSgFvrl9hFRG3o2UWs-6" value="&amp;lt;&amp;lt;include&amp;gt;&amp;gt;" style="edgeLabel;html=1;align=center;verticalAlign=middle;resizable=0;points=[];" parent="1" vertex="1" connectable="0">
          <mxGeometry x="670" y="520.2916512459888" as="geometry">
            <mxPoint x="-170" y="1" as="offset" />
          </mxGeometry>
        </mxCell>
        <mxCell id="KSdjuSI3MwPudzWqymLE-5" style="edgeStyle=orthogonalEdgeStyle;rounded=0;orthogonalLoop=1;jettySize=auto;html=1;" edge="1" parent="1" source="KSdjuSI3MwPudzWqymLE-2" target="KSdjuSI3MwPudzWqymLE-3">
          <mxGeometry relative="1" as="geometry" />
        </mxCell>
        <mxCell id="KSdjuSI3MwPudzWqymLE-2" value="Manutenção do cadastro do cliente" style="ellipse;whiteSpace=wrap;html=1;" vertex="1" parent="1">
          <mxGeometry x="470" y="210" width="140" height="80" as="geometry" />
        </mxCell>
        <mxCell id="KSdjuSI3MwPudzWqymLE-6" style="edgeStyle=orthogonalEdgeStyle;rounded=0;orthogonalLoop=1;jettySize=auto;html=1;" edge="1" parent="1" source="KSdjuSI3MwPudzWqymLE-3" target="Zp6je37afjgrhPP4GV5p-15">
          <mxGeometry relative="1" as="geometry" />
        </mxCell>
        <mxCell id="KSdjuSI3MwPudzWqymLE-3" value="Manutenção do cadastro do anlimal" style="ellipse;whiteSpace=wrap;html=1;" vertex="1" parent="1">
          <mxGeometry x="472.5" y="310" width="135" height="80" as="geometry" />
        </mxCell>
      </root>
    </mxGraphModel>
  </diagram>
  <diagram id="qpJm1Rku2middHPJDk_h" name="Página-2">
    <mxGraphModel dx="954" dy="616" grid="1" gridSize="10" guides="1" tooltips="1" connect="1" arrows="1" fold="1" page="1" pageScale="1" pageWidth="827" pageHeight="1169" math="0" shadow="0">
      <root>
        <mxCell id="0" />
        <mxCell id="1" parent="0" />
        <mxCell id="zgziP5FIFo3NaPV7fVCy-1" value="" style="whiteSpace=wrap;html=1;aspect=fixed;" parent="1" vertex="1">
          <mxGeometry x="150" y="30" width="590" height="590" as="geometry" />
        </mxCell>
        <mxCell id="zgziP5FIFo3NaPV7fVCy-2" value="Cliente" style="shape=umlActor;verticalLabelPosition=bottom;verticalAlign=top;html=1;outlineConnect=0;" parent="1" vertex="1">
          <mxGeometry x="40" y="80" width="30" height="60" as="geometry" />
        </mxCell>
      </root>
    </mxGraphModel>
  </diagram>
</mxfile>